<?xml version="1.0" standalone="no"?>
<!DOCTYPE svg PUBLIC "-//W3C//DTD SVG 20010904//EN"
 "http://www.w3.org/TR/2001/REC-SVG-20010904/DTD/svg10.dtd">
<svg version="1.0" xmlns="http://www.w3.org/2000/svg"
 width="768.000000pt" height="356.000000pt" viewBox="0 0 768.000000 356.000000"
 preserveAspectRatio="xMidYMid meet">

<g transform="translate(0.000000,356.000000) scale(0.100000,-0.100000)"
fill="#000000" stroke="none">
<path d="M3090 2190 c-11 -11 -22 -30 -25 -42 -3 -13 -4 -245 -3 -516 l3 -494
24 -19 c33 -27 92 -25 119 4 20 21 22 34 22 121 l0 97 38 34 c20 19 40 35 43
35 4 0 46 -42 95 -92 211 -220 209 -218 242 -218 46 0 92 43 92 86 0 38 10 25
-190 242 l-104 113 89 82 c161 146 175 162 175 194 0 38 -43 83 -79 83 -15 0
-42 -11 -62 -24 l-36 -24 5 53 c6 68 -1 96 -34 134 -52 62 -154 62 -216 1 -50
-50 -32 -131 26 -116 14 3 37 1 51 -6 21 -9 25 -18 23 -42 -2 -24 -12 -36 -45
-54 -49 -27 -61 -53 -39 -87 13 -19 25 -25 54 -25 l37 0 -71 -70 c-40 -39 -77
-70 -83 -70 -8 0 -11 85 -11 299 l0 300 -26 20 c-34 27 -88 27 -114 1z"/>
<path d="M565 2125 l-25 -24 0 -479 0 -479 23 -21 c32 -30 87 -29 115 1 22 23
22 28 22 350 0 181 4 327 9 327 5 0 64 -88 131 -196 68 -107 132 -202 144
-210 27 -18 66 -18 94 2 12 8 80 102 150 207 l127 192 5 -328 5 -329 24 -19
c34 -28 96 -25 126 6 l25 24 0 476 0 476 -25 24 c-17 18 -35 25 -64 25 -50 0
-45 6 -246 -298 -88 -133 -163 -242 -166 -242 -4 0 -80 114 -169 253 -90 138
-172 260 -183 270 -29 26 -92 23 -122 -8z"/>
<path d="M3929 1937 c-107 -30 -190 -104 -243 -216 -30 -63 -31 -71 -31 -196
0 -125 1 -132 32 -197 63 -135 169 -209 307 -216 93 -5 136 6 206 53 59 40 60
40 60 21 0 -23 59 -66 90 -66 16 0 41 11 57 24 l28 24 0 366 0 365 -23 23
c-33 34 -97 31 -128 -5 -13 -16 -24 -35 -24 -43 0 -18 -14 -18 -29 0 -6 7 -38
25 -71 40 -71 32 -166 41 -231 23z m234 -196 c59 -40 90 -103 95 -194 6 -96
-12 -151 -67 -208 -58 -60 -111 -77 -191 -60 -99 20 -164 100 -176 218 -12
113 42 223 130 265 62 29 150 20 209 -21z"/>
<path d="M4737 1938 c-70 -9 -149 -50 -187 -96 -84 -102 -53 -264 62 -323 24
-12 94 -39 157 -60 127 -43 158 -60 170 -93 26 -67 -26 -116 -124 -116 -71 0
-122 21 -195 79 -57 45 -68 48 -109 26 -59 -30 -56 -81 7 -144 72 -72 139 -95
277 -95 107 -1 112 0 173 33 53 29 80 54 119 110 2 2 20 -14 40 -36 119 -127
371 -152 505 -50 62 47 88 98 88 174 0 75 -11 108 -53 151 -42 44 -63 55 -211
102 -94 31 -131 48 -146 67 -28 36 -25 69 9 104 26 25 37 29 86 29 65 0 114
-18 161 -60 46 -40 94 -41 124 -3 48 61 -18 144 -152 190 -54 19 -182 18 -236
-1 -114 -41 -174 -118 -174 -221 1 -129 52 -177 261 -245 147 -48 188 -79 177
-134 -11 -53 -37 -70 -115 -74 -80 -5 -130 13 -200 72 -50 42 -81 52 -109 37
-32 -17 -42 -13 -42 17 -1 43 -34 106 -76 141 -27 22 -77 44 -167 73 -142 45
-187 73 -187 118 0 16 3 36 6 45 17 42 130 60 200 30 20 -8 52 -28 70 -45 93
-81 187 21 102 110 -66 67 -193 103 -311 88z"/>
<path d="M6842 1914 c-28 -14 -63 -39 -76 -55 -29 -34 -36 -36 -36 -8 0 11
-13 34 -29 50 -48 48 -111 36 -137 -26 -18 -44 -21 -643 -3 -694 21 -60 103
-77 145 -29 17 18 20 45 24 262 5 234 6 242 30 286 45 80 110 106 201 79 94
-29 157 64 90 132 -26 26 -36 29 -93 29 -49 0 -76 -6 -116 -26z"/>
<path d="M5803 1906 l-28 -24 0 -264 0 -263 28 -61 c34 -74 84 -125 152 -156
43 -20 66 -23 165 -23 132 0 171 14 248 88 78 76 86 112 90 410 l3 257 -29 30
c-47 47 -107 38 -137 -20 -12 -23 -15 -74 -15 -262 0 -202 -2 -238 -18 -267
-27 -54 -63 -75 -135 -79 -76 -4 -122 17 -152 68 -18 32 -20 57 -25 288 l-5
254 -28 24 c-36 31 -78 31 -114 0z"/>
<path d="M1890 1904 c-186 -49 -304 -257 -270 -476 45 -295 321 -437 550 -283
29 19 54 35 56 35 2 0 4 -8 4 -18 0 -10 10 -28 23 -40 33 -31 90 -30 122 3
l25 24 0 354 c0 340 -1 355 -20 380 -42 53 -127 39 -149 -24 l-11 -31 -27 18
c-69 45 -155 74 -218 73 -16 0 -55 -7 -85 -15z m228 -181 c96 -55 139 -201 95
-328 -45 -133 -199 -193 -316 -122 -138 84 -155 317 -30 427 73 64 165 73 251
23z"/>
<path d="M2847 1910 c-56 -14 -111 -46 -140 -80 -14 -16 -28 -30 -30 -30 -3 0
-7 13 -10 29 -14 68 -90 93 -144 47 l-28 -24 0 -350 0 -350 24 -26 c30 -32 87
-35 122 -7 24 19 24 22 29 263 3 133 10 252 14 263 17 39 57 85 88 101 31 16
67 15 154 -2 39 -7 81 27 90 72 5 25 0 38 -23 63 -32 36 -81 47 -146 31z"/>
<path d="M742 907 c-6 -7 -26 -50 -45 -97 -19 -47 -62 -152 -96 -233 -49 -119
-59 -152 -51 -167 22 -41 58 -18 85 55 l18 45 117 0 118 0 28 -57 c31 -63 54
-75 80 -45 16 20 17 20 58 1 77 -35 187 -17 222 36 l15 23 28 -28 c71 -72 224
-65 271 12 50 82 7 145 -123 182 -64 19 -92 51 -67 81 19 23 92 19 124 -6 29
-23 54 -22 70 3 23 37 -58 88 -139 88 -116 0 -184 -102 -120 -179 17 -20 47
-37 93 -52 74 -24 102 -43 102 -69 0 -52 -87 -59 -151 -12 -32 24 -46 29 -60
22 -14 -8 -19 -5 -24 19 -9 43 -48 73 -127 101 -39 14 -76 33 -82 43 -30 48
70 78 125 38 33 -25 52 -26 69 -6 17 21 -11 62 -55 81 -105 43 -225 -11 -225
-102 0 -57 28 -84 120 -115 76 -25 102 -45 98 -73 -8 -53 -97 -54 -158 -2 -25
21 -35 24 -56 16 -21 -8 -26 -6 -34 14 -28 76 -155 373 -163 384 -12 16 -52
16 -65 -1z m71 -219 l35 -83 -70 -3 c-39 -2 -73 -1 -75 2 -6 6 59 166 67 166
4 0 23 -37 43 -82z"/>
<path d="M1650 780 c-21 -21 -22 -29 -18 -149 4 -139 16 -173 71 -215 41 -30
163 -30 204 0 53 39 63 75 63 226 0 121 -2 138 -17 146 -20 10 -44 5 -55 -12
-4 -6 -8 -66 -8 -133 0 -112 -2 -124 -23 -148 -29 -35 -89 -37 -121 -6 -19 19
-22 36 -26 153 -5 120 -7 132 -27 145 -19 13 -24 12 -43 -7z"/>
<path d="M2043 785 c-16 -12 -18 -33 -21 -172 -4 -175 4 -213 41 -213 41 0 47
17 47 140 0 97 3 120 20 148 21 35 22 35 95 36 44 1 50 4 53 24 5 33 -15 52
-55 52 -34 0 -93 -27 -93 -42 0 -16 -19 -7 -25 11 -7 24 -39 32 -62 16z"/>
<path d="M2378 780 c-23 -12 -48 -39 -65 -68 -23 -39 -28 -58 -28 -117 0 -58
5 -78 27 -117 49 -82 150 -111 230 -66 37 21 40 21 49 5 11 -20 49 -23 67 -5
17 17 17 359 0 376 -19 19 -56 14 -68 -8 -10 -19 -11 -19 -43 0 -42 26 -119
26 -169 0z m160 -76 c80 -56 63 -201 -28 -230 -63 -21 -122 11 -141 77 -26 87
24 169 103 169 24 0 54 -7 66 -16z"/>
<path d="M2750 792 c-8 -3 -18 -10 -22 -16 -4 -6 -8 -88 -8 -181 0 -181 3
-195 47 -195 34 0 43 34 43 164 0 105 2 114 23 134 17 16 36 22 70 22 69 0 77
-17 77 -163 0 -129 8 -157 45 -157 36 0 45 28 45 138 0 142 -13 200 -51 236
-29 26 -37 28 -90 24 -48 -3 -65 -10 -89 -33 l-29 -28 -10 25 c-10 28 -28 38
-51 30z"/>
<path d="M3202 779 c-46 -23 -72 -55 -90 -108 -33 -97 7 -217 87 -258 95 -49
257 -11 236 56 -7 23 -53 29 -72 10 -6 -6 -32 -11 -58 -11 -35 0 -53 6 -72 24
-61 56 -66 143 -11 198 24 24 38 30 74 30 25 0 59 -7 75 -16 36 -18 59 -6 59
32 0 60 -140 86 -228 43z"/>
<path d="M3555 786 c-67 -29 -115 -112 -115 -199 0 -79 62 -168 130 -187 93
-26 212 7 218 62 4 34 -26 45 -65 25 -29 -15 -57 -20 -104 -18 -33 1 -89 52
-89 80 0 20 5 21 133 21 90 0 137 4 145 12 42 42 -31 177 -111 207 -38 15
-105 13 -142 -3z m146 -95 c16 -16 29 -34 29 -40 0 -7 -35 -11 -100 -11 -111
0 -122 8 -75 55 37 37 106 35 146 -4z"/>
<path d="M3904 786 c-43 -19 -64 -53 -64 -104 0 -53 25 -81 95 -106 28 -10 63
-23 78 -28 56 -21 56 -80 1 -91 -35 -6 -74 5 -120 37 -65 44 -103 -3 -46 -57
97 -93 282 -43 282 75 0 53 -38 90 -116 114 -70 21 -94 39 -94 69 0 40 74 49
125 15 51 -34 83 -23 71 25 -14 54 -138 83 -212 51z"/>
</g>
</svg>
